{
  "accessors": [
    {
      "bufferView": 3,
      "componentType": 5126,
      "count": 11133,
      "max": [
        0.7684683799743652,
        1.1189706325531006,
        0.1635090857744217
      ],
      "min": [
        0.20784416794776917,
        -0.10620884597301483,
        -0.31877076625823975
      ],
      "type": "VEC3"
    },
    {
      "bufferView": 3,
      "byteOffset": 133596,
      "componentType": 5126,
      "count": 11133,
      "max": [
        0.9986740946769714,
        0.9998553991317749,
        0.9999486207962036
      ],
      "min": [
        -0.9999039173126221,
        -0.9995340704917908,
        -0.9999499320983887
      ],
      "type": "VEC3"
    },
    {
      "bufferView": 4,
      "componentType": 5126,
      "count": 11133,
      "max": [
        0.9999423623085022,
        0.999609112739563,
        0.9999744296073914,
        1.0
      ],
      "min": [
        -0.9995774626731873,
        -0.9997953176498413,
        -0.999996542930603,
        -1.0
      ],
      "type": "VEC4"
    },
    {
      "bufferView": 2,
      "componentType": 5126,
      "count": 11133,
      "max": [
        1.0069650411605835,
        0.9962000250816345
      ],
      "min": [
        0.018559999763965607,
        0.04660499095916748
      ],
      "type": "VEC2"
    },
    {
      "bufferView": 1,
      "componentType": 5125,
      "count": 43506,
      "type": "SCALAR"
    },
    {
      "bufferView": 3,
      "byteOffset": 267192,
      "componentType": 5126,
      "count": 11118,
      "max": [
        -0.19710613787174225,
        1.1282469034194946,
        0.1419493705034256
      ],
      "min": [
        -0.6438086628913879,
        -0.13271841406822205,
        -0.3748774826526642
      ],
      "type": "VEC3"
    },
    {
      "bufferView": 3,
      "byteOffset": 400608,
      "componentType": 5126,
      "count": 11118,
      "max": [
        0.9994964003562927,
        0.9997833371162415,
        0.9998975992202759
      ],
      "min": [
        -0.9996163249015808,
        -0.9992746114730835,
        -0.9999476671218872
      ],
      "type": "VEC3"
    },
    {
      "bufferView": 4,
      "byteOffset": 178128,
      "componentType": 5126,
      "count": 11118,
      "max": [
        0.9998414516448975,
        0.9993606209754944,
        0.999900221824646,
        1.0
      ],
      "min": [
        -0.9999661445617676,
        -0.9997732639312744,
        -0.9999977946281433,
        -1.0
      ],
      "type": "VEC4"
    },
    {
      "bufferView": 2,
      "byteOffset": 89064,
      "componentType": 5126,
      "count": 11118,
      "max": [
        0.9962049722671509,
        0.9962000250816345
      ],
      "min": [
        0.007799999788403511,
        0.045633018016815186
      ],
      "type": "VEC2"
    },
    {
      "bufferView": 1,
      "byteOffset": 174024,
      "componentType": 5125,
      "count": 42321,
      "type": "SCALAR"
    },
    {
      "bufferView": 3,
      "byteOffset": 534024,
      "componentType": 5126,
      "count": 474,
      "max": [
        -0.48014700412750244,
        0.6534750461578369,
        0.054586440324783325
      ],
      "min": [
        -0.8003355860710144,
        0.12895382940769196,
        -0.2736586928367615
      ],
      "type": "VEC3"
    },
    {
      "bufferView": 3,
      "byteOffset": 539712,
      "componentType": 5126,
      "count": 474,
      "max": [
        0.9718515872955322,
        0.9828421473503113,
        0.9640695452690125
      ],
      "min": [
        -0.9845088720321655,
        -0.9460635781288147,
        -0.9839305877685547
      ],
      "type": "VEC3"
    },
    {
      "bufferView": 4,
      "byteOffset": 356016,
      "componentType": 5126,
      "count": 474,
      "max": [
        0.9913256168365479,
        0.9899589419364929,
        0.9875721335411072,
        1.0
      ],
      "min": [
        -0.9845970273017883,
        -0.9777045845985413,
        -0.9992995858192444,
        -1.0
      ],
      "type": "VEC4"
    },
    {
      "bufferView": 2,
      "byteOffset": 178008,
      "componentType": 5126,
      "count": 474,
      "max": [
        0.7547420263290405,
        0.12263202667236328
      ],
      "min": [
        0.17322300374507904,
        0.07640302181243896
      ],
      "type": "VEC2"
    },
    {
      "bufferView": 1,
      "byteOffset": 343308,
      "componentType": 5125,
      "count": 1452,
      "type": "SCALAR"
    },
    {
      "bufferView": 3,
      "byteOffset": 545400,
      "componentType": 5126,
      "count": 5182,
      "max": [
        0.6262747049331665,
        0.808698832988739,
        -0.05225514993071556
      ],
      "min": [
        -0.598639190196991,
        0.3496127426624298,
        -0.3950255215167999
      ],
      "type": "VEC3"
    },
    {
      "bufferView": 3,
      "byteOffset": 607584,
      "componentType": 5126,
      "count": 5182,
      "max": [
        0.9989401698112488,
        0.999768078327179,
        0.9999068975448608
      ],
      "min": [
        -0.9993515610694885,
        -0.9998897910118103,
        -0.9990679025650024
      ],
      "type": "VEC3"
    },
    {
      "bufferView": 4,
      "byteOffset": 363600,
      "componentType": 5126,
      "count": 5182,
      "max": [
        0.9999839663505554,
        0.9997898936271667,
        0.9990026354789734,
        1.0
      ],
      "min": [
        -0.9999984502792358,
        -0.9992806315422058,
        -0.9984862804412842,
        -1.0
      ],
      "type": "VEC4"
    },
    {
      "bufferView": 2,
      "byteOffset": 181800,
      "componentType": 5126,
      "count": 5182,
      "max": [
        0.9961150288581848,
        0.12870997190475464
      ],
      "min": [
        0.1378210037946701,
        0.031696975231170654
      ],
      "type": "VEC2"
    },
    {
      "bufferView": 1,
      "byteOffset": 349116,
      "componentType": 5125,
      "count": 26304,
      "type": "SCALAR"
    },
    {
      "bufferView": 3,
      "byteOffset": 669768,
      "componentType": 5126,
      "count": 2160,
      "max": [
        0.2660248875617981,
        1.3201854228973389,
        -0.10905970633029938
      ],
      "min": [
        -0.2531777620315552,
        0.755859911441803,
        -0.22720319032669067
      ],
      "type": "VEC3"
    },
    {
      "bufferView": 3,
      "byteOffset": 695688,
      "componentType": 5126,
      "count": 2160,
      "max": [
        0.9998587965965271,
        0.9997198581695557,
        0.9997450113296509
      ],
      "min": [
        -0.9997154474258423,
        -0.9998953342437744,
        -0.9991561770439148
      ],
      "type": "VEC3"
    },
    {
      "bufferView": 4,
      "byteOffset": 446512,
      "componentType": 5126,
      "count": 2160,
      "max": [
        0.9999505877494812,
        0.9998455047607422,
        0.9900311827659607,
        1.0
      ],
      "min": [
        -0.9999581575393677,
        -0.9999833703041077,
        -0.9999908208847046,
        -1.0
      ],
      "type": "VEC4"
    },
    {
      "bufferView": 2,
      "byteOffset": 223256,
      "componentType": 5126,
      "count": 2160,
      "max": [
        1.9952290058135986,
        0.9852089881896973
      ],
      "min": [
        0.009802999906241894,
        0.23648899793624878
      ],
      "type": "VEC2"
    },
    {
      "bufferView": 1,
      "byteOffset": 454332,
      "componentType": 5125,
      "count": 8724,
      "type": "SCALAR"
    },
    {
      "bufferView": 3,
      "byteOffset": 721608,
      "componentType": 5126,
      "count": 483,
      "max": [
        0.272686630487442,
        1.3485996723175049,
        -0.10975952446460724
      ],
      "min": [
        -0.01011498924344778,
        1.1248034238815308,
        -0.2237570732831955
      ],
      "type": "VEC3"
    },
    {
      "bufferView": 3,
      "byteOffset": 727404,
      "componentType": 5126,
      "count": 483,
      "max": [
        0.9962725639343262,
        0.93662029504776,
        0.9999227523803711
      ],
      "min": [
        -0.9407647848129272,
        -0.9782273173332214,
        -0.9999914169311523
      ],
      "type": "VEC3"
    },
    {
      "bufferView": 4,
      "byteOffset": 481072,
      "componentType": 5126,
      "count": 483,
      "max": [
        0.9997196197509766,
        0.9628990888595581,
        0.9789835214614868,
        1.0
      ],
      "min": [
        -0.9505044221878052,
        -0.9997414946556091,
        -0.9830667972564697,
        -1.0
      ],
      "type": "VEC4"
    },
    {
      "bufferView": 2,
      "byteOffset": 240536,
      "componentType": 5126,
      "count": 483,
      "max": [
        0.9928060173988342,
        0.9144139885902405
      ],
      "min": [
        0.2294750064611435,
        0.07050901651382446
      ],
      "type": "VEC2"
    },
    {
      "bufferView": 1,
      "byteOffset": 489228,
      "componentType": 5125,
      "count": 1833,
      "type": "SCALAR"
    },
    {
      "bufferView": 3,
      "byteOffset": 733200,
      "componentType": 5126,
      "count": 817,
      "max": [
        0.14397910237312317,
        1.1471381187438965,
        -0.06421869248151779
      ],
      "min": [
        -0.1300002485513687,
        0.9241276383399963,
        -0.10720132291316986
      ],
      "type": "VEC3"
    },
    {
      "bufferView": 3,
      "byteOffset": 743004,
      "componentType": 5126,
      "count": 817,
      "max": [
        0.9990025758743286,
        0.9994301199913025,
        0.9999929666519165
      ],
      "min": [
        -0.999100923538208,
        -0.999588668346405,
        -0.9999200701713562
      ],
      "type": "VEC3"
    },
    {
      "bufferView": 4,
      "byteOffset": 488800,
      "componentType": 5126,
      "count": 817,
      "max": [
        0.9996320009231567,
        0.9998021125793457,
        0.9998767971992493,
        1.0
      ],
      "min": [
        -0.99997878074646,
        -0.9999055862426758,
        -0.8171206712722778,
        -1.0
      ],
      "type": "VEC4"
    },
    {
      "bufferView": 2,
      "byteOffset": 244400,
      "componentType": 5126,
      "count": 817,
      "max": [
        0.9966899752616882,
        0.9899060130119324
      ],
      "min": [
        0.012107999995350838,
        0.30701297521591187
      ],
      "type": "VEC2"
    },
    {
      "bufferView": 1,
      "byteOffset": 496560,
      "componentType": 5125,
      "count": 3498,
      "type": "SCALAR"
    },
    {
      "bufferView": 3,
      "byteOffset": 752808,
      "componentType": 5126,
      "count": 544,
      "max": [
        -0.5610958933830261,
        0.2132679969072342,
        0.0844314768910408
      ],
      "min": [
        -0.719959557056427,
        0.03025231510400772,
        -0.19734439253807068
      ],
      "type": "VEC3"
    },
    {
      "bufferView": 3,
      "byteOffset": 759336,
      "componentType": 5126,
      "count": 544,
      "max": [
        0.9393244981765747,
        0.9899584054946899,
        0.9460576176643372
      ],
      "min": [
        -0.9848574995994568,
        -0.9981076121330261,
        -0.9610767364501953
      ],
      "type": "VEC3"
    },
    {
      "bufferView": 4,
      "byteOffset": 501872,
      "componentType": 5126,
      "count": 544,
      "max": [
        0.9926719069480896,
        0.9974249601364136,
        0.9783247709274292,
        1.0
      ],
      "min": [
        -0.9925887584686279,
        -0.996305525302887,
        -0.9913809895515442,
        -1.0
      ],
      "type": "VEC4"
    },
    {
      "bufferView": 2,
      "byteOffset": 250936,
      "componentType": 5126,
      "count": 544,
      "max": [
        0.20242400467395782,
        0.2123730182647705
      ],
      "min": [
        0.05053199827671051,
        0.08820897340774536
      ],
      "type": "VEC2"
    },
    {
      "bufferView": 1,
      "byteOffset": 510552,
      "componentType": 5125,
      "count": 2385,
      "type": "SCALAR"
    },
    {
      "bufferView": 3,
      "byteOffset": 765864,
      "componentType": 5126,
      "count": 418,
      "max": [
        0.49298492074012756,
        1.1262295246124268,
        -0.06797236204147339
      ],
      "min": [
        -0.47797271609306335,
        1.0270205736160278,
        -0.2399226576089859
      ],
      "type": "VEC3"
    },
    {
      "bufferView": 3,
      "byteOffset": 770880,
      "componentType": 5126,
      "count": 418,
      "max": [
        0.9699142575263977,
        0.999424159526825,
        0.9976290464401245
      ],
      "min": [
        -0.9667206406593323,
        -0.9976655840873718,
        -0.9978141784667969
      ],
      "type": "VEC3"
    },
    {
      "bufferView": 4,
      "byteOffset": 510576,
      "componentType": 5126,
      "count": 418,
      "max": [
        0.9996557235717773,
        0.1587539166212082,
        0.911744236946106,
        1.0
      ],
      "min": [
        -0.999459445476532,
        -0.5213060975074768,
        -0.4345184564590454,
        -1.0
      ],
      "type": "VEC4"
    },
    {
      "bufferView": 2,
      "byteOffset": 255288,
      "componentType": 5126,
      "count": 418,
      "max": [
        0.6732280254364014,
        0.09308600425720215
      ],
      "min": [
        0.5707709789276123,
        0.07968902587890625
      ],
      "type": "VEC2"
    },
    {
      "bufferView": 1,
      "byteOffset": 520092,
      "componentType": 5125,
      "count": 2160,
      "type": "SCALAR"
    },
    {
      "bufferView": 5,
      "componentType": 5126,
      "count": 59,
      "max": [
        1.0,
        0.9567703604698181,
        0.6775074005126953,
        0.0,
        0.9661615490913391,
        1.0,
        0.6121391654014587,
        0.0,
        0.3834901750087738,
        0.9814985990524292,
        1.0,
        0.0,
        0.6288742423057556,
        0.28554829955101013,
        0.9276840090751648,
        1.0
      ],
      "min": [
        -0.33382710814476013,
        -0.9823352694511414,
        -0.22629176080226898,
        0.0,
        -0.8974214196205139,
        -0.3071746230125427,
        -0.8204731941223145,
        0.0,
        -0.6635849475860596,
        -0.31278088688850403,
        -0.07174461334943771,
        0.0,
        -0.8495875597000122,
        -1.2646416425704956,
        -0.30806952714920044,
        1.0
      ],
      "type": "MAT4"
    },
    {
      "bufferView": 0,
      "componentType": 5123,
      "count": 11133,
      "type": "VEC4"
    },
    {
      "bufferView": 4,
      "byteOffset": 517264,
      "componentType": 5126,
      "count": 11133,
      "max": [
        1.0,
        0.2700420022010803,
        0.0,
        0.0
      ],
      "min": [
        0.7299579977989197,
        0.0,
        0.0,
        0.0
      ],
      "type": "VEC4"
    },
    {
      "bufferView": 0,
      "byteOffset": 89064,
      "componentType": 5123,
      "count": 11118,
      "type": "VEC4"
    },
    {
      "bufferView": 4,
      "byteOffset": 695392,
      "componentType": 5126,
      "count": 11118,
      "max": [
        1.0,
        0.4856890141963959,
        0.0,
        0.0
      ],
      "min": [
        0.5143110156059265,
        0.0,
        0.0,
        0.0
      ],
      "type": "VEC4"
    },
    {
      "bufferView": 0,
      "byteOffset": 178008,
      "componentType": 5123,
      "count": 474,
      "type": "VEC4"
    },
    {
      "bufferView": 4,
      "byteOffset": 873280,
      "componentType": 5126,
      "count": 474,
      "max": [
        1.0,
        0.0,
        0.0,
        0.0
      ],
      "min": [
        1.0,
        0.0,
        0.0,
        0.0
      ],
      "type": "VEC4"
    },
    {
      "bufferView": 0,
      "byteOffset": 181800,
      "componentType": 5123,
      "count": 5182,
      "type": "VEC4"
    },
    {
      "bufferView": 4,
      "byteOffset": 880864,
      "componentType": 5126,
      "count": 5182,
      "max": [
        1.0,
        0.3125140070915222,
        0.0,
        0.0
      ],
      "min": [
        0.6874859929084778,
        0.0,
        0.0,
        0.0
      ],
      "type": "VEC4"
    },
    {
      "bufferView": 0,
      "byteOffset": 223256,
      "componentType": 5123,
      "count": 2160,
      "type": "VEC4"
    },
    {
      "bufferView": 4,
      "byteOffset": 963776,
      "componentType": 5126,
      "count": 2160,
      "max": [
        1.0,
        0.0,
        0.0,
        0.0
      ],
      "min": [
        1.0,
        0.0,
        0.0,
        0.0
      ],
      "type": "VEC4"
    },
    {
      "bufferView": 0,
      "byteOffset": 240536,
      "componentType": 5123,
      "count": 483,
      "type": "VEC4"
    },
    {
      "bufferView": 4,
      "byteOffset": 998336,
      "componentType": 5126,
      "count": 483,
      "max": [
        1.0,
        0.0,
        0.0,
        0.0
      ],
      "min": [
        1.0,
        0.0,
        0.0,
        0.0
      ],
      "type": "VEC4"
    },
    {
      "bufferView": 0,
      "byteOffset": 244400,
      "componentType": 5123,
      "count": 817,
      "type": "VEC4"
    },
    {
      "bufferView": 4,
      "byteOffset": 1006064,
      "componentType": 5126,
      "count": 817,
      "max": [
        1.0,
        0.0,
        0.0,
        0.0
      ],
      "min": [
        1.0,
        0.0,
        0.0,
        0.0
      ],
      "type": "VEC4"
    },
    {
      "bufferView": 0,
      "byteOffset": 250936,
      "componentType": 5123,
      "count": 544,
      "type": "VEC4"
    },
    {
      "bufferView": 4,
      "byteOffset": 1019136,
      "componentType": 5126,
      "count": 544,
      "max": [
        1.0,
        0.0,
        0.0,
        0.0
      ],
      "min": [
        1.0,
        0.0,
        0.0,
        0.0
      ],
      "type": "VEC4"
    },
    {
      "bufferView": 0,
      "byteOffset": 255288,
      "componentType": 5123,
      "count": 418,
      "type": "VEC4"
    },
    {
      "bufferView": 4,
      "byteOffset": 1027840,
      "componentType": 5126,
      "count": 418,
      "max": [
        1.0,
        0.25718599557876587,
        0.0,
        0.0
      ],
      "min": [
        0.7428140044212341,
        0.0,
        0.0,
        0.0
      ],
      "type": "VEC4"
    }
  ],
  "asset": {
    "extras": {
      "author": "photon (that one larry) (https://sketchfab.com/Professor_E12)",
      "license": "CC-BY-4.0 (http://creativecommons.org/licenses/by/4.0/)",
      "source": "https://sketchfab.com/3d-models/gravity-arms-3c6e8079dc55490ca37d488991900442",
      "title": "Gravity Arms"
    },
    "generator": "Sketchfab-16.95.0",
    "version": "2.0"
  },
  "bufferViews": [
    {
      "buffer": 0,
      "byteLength": 258632,
      "byteStride": 8,
      "name": "shortBufferViews",
      "target": 34962
    },
    {
      "buffer": 0,
      "byteLength": 528732,
      "byteOffset": 258632,
      "name": "floatBufferViews",
      "target": 34963
    },
    {
      "buffer": 0,
      "byteLength": 258632,
      "byteOffset": 787364,
      "byteStride": 8,
      "name": "floatBufferViews",
      "target": 34962
    },
    {
      "buffer": 0,
      "byteLength": 775896,
      "byteOffset": 1045996,
      "byteStride": 12,
      "name": "floatBufferViews",
      "target": 34962
    },
    {
      "buffer": 0,
      "byteLength": 1034528,
      "byteOffset": 1821892,
      "byteStride": 16,
      "name": "floatBufferViews",
      "target": 34962
    },
    {
      "buffer": 0,
      "byteLength": 3776,
      "byteOffset": 2856420,
      "name": "floatBufferViews"
    }
  ],
  "buffers": [
    {
      "byteLength": 2860196,
      "uri": "scene.bin"
    }
  ],
  "extensionsUsed": [
    "KHR_materials_specular"
  ],
  "images": [
    {
      "uri": "textures/Mech_baseColor.png"
    },
    {
      "uri": "textures/Mech_normal.png"
    },
    {
      "uri": "textures/Mech_specularf0.png"
    }
  ],
  "materials": [
    {
      "doubleSided": true,
      "extensions": {
        "KHR_materials_specular": {
          "specularColorFactor": [
            1.0,
            1.0,
            1.0
          ],
          "specularFactor": 1.0,
          "specularTexture": {
            "index": 2
          }
        }
      },
      "name": "Mech",
      "normalTexture": {
        "index": 1
      },
      "pbrMetallicRoughness": {
        "baseColorTexture": {
          "index": 0
        },
        "metallicFactor": 0.0,
        "roughnessFactor": 0.214844
      }
    }
  ],
  "meshes": [
    {
      "name": "Object_0",
      "primitives": [
        {
          "attributes": {
            "JOINTS_0": 46,
            "NORMAL": 1,
            "POSITION": 0,
            "TANGENT": 2,
            "TEXCOORD_0": 3,
            "TEXCOORD_1": 3,
            "WEIGHTS_0": 47
          },
          "indices": 4,
          "material": 0,
          "mode": 4
        }
      ]
    },
    {
      "name": "Object_1",
      "primitives": [
        {
          "attributes": {
            "JOINTS_0": 48,
            "NORMAL": 6,
            "POSITION": 5,
            "TANGENT": 7,
            "TEXCOORD_0": 8,
            "TEXCOORD_1": 8,
            "WEIGHTS_0": 49
          },
          "indices": 9,
          "material": 0,
          "mode": 4
        }
      ]
    },
    {
      "name": "Object_2",
      "primitives": [
        {
          "attributes": {
            "JOINTS_0": 50,
            "NORMAL": 11,
            "POSITION": 10,
            "TANGENT": 12,
            "TEXCOORD_0": 13,
            "TEXCOORD_1": 13,
            "WEIGHTS_0": 51
          },
          "indices": 14,
          "material": 0,
          "mode": 4
        }
      ]
    },
    {
      "name": "Object_3",
      "primitives": [
        {
          "attributes": {
            "JOINTS_0": 52,
            "NORMAL": 16,
            "POSITION": 15,
            "TANGENT": 17,
            "TEXCOORD_0": 18,
            "TEXCOORD_1": 18,
            "WEIGHTS_0": 53
          },
          "indices": 19,
          "material": 0,
          "mode": 4
        }
      ]
    },
    {
      "name": "Object_4",
      "primitives": [
        {
          "attributes": {
            "JOINTS_0": 54,
            "NORMAL": 21,
            "POSITION": 20,
            "TANGENT": 22,
            "TEXCOORD_0": 23,
            "TEXCOORD_1": 23,
            "WEIGHTS_0": 55
          },
          "indices": 24,
          "material": 0,
          "mode": 4
        }
      ]
    },
    {
      "name": "Object_5",
      "primitives": [
        {
          "attributes": {
            "JOINTS_0": 56,
            "NORMAL": 26,
            "POSITION": 25,
            "TANGENT": 27,
            "TEXCOORD_0": 28,
            "TEXCOORD_1": 28,
            "WEIGHTS_0": 57
          },
          "indices": 29,
          "material": 0,
          "mode": 4
        }
      ]
    },
    {
      "name": "Object_6",
      "primitives": [
        {
          "attributes": {
            "JOINTS_0": 58,
            "NORMAL": 31,
            "POSITION": 30,
            "TANGENT": 32,
            "TEXCOORD_0": 33,
            "TEXCOORD_1": 33,
            "WEIGHTS_0": 59
          },
          "indices": 34,
          "material": 0,
          "mode": 4
        }
      ]
    },
    {
      "name": "Object_7",
      "primitives": [
        {
          "attributes": {
            "JOINTS_0": 60,
            "NORMAL": 36,
            "POSITION": 35,
            "TANGENT": 37,
            "TEXCOORD_0": 38,
            "TEXCOORD_1": 38,
            "WEIGHTS_0": 61
          },
          "indices": 39,
          "material": 0,
          "mode": 4
        }
      ]
    },
    {
      "name": "Object_8",
      "primitives": [
        {
          "attributes": {
            "JOINTS_0": 62,
            "NORMAL": 41,
            "POSITION": 40,
            "TANGENT": 42,
            "TEXCOORD_0": 43,
            "TEXCOORD_1": 43,
            "WEIGHTS_0": 63
          },
          "indices": 44,
          "material": 0,
          "mode": 4
        }
      ]
    }
  ],
  "nodes": [
    {
      "children": [
        1
      ],
      "matrix": [
        1.0,
        0.0,
        0.0,
        0.0,
        0.0,
        2.220446049250313e-16,
        -1.0,
        0.0,
        0.0,
        1.0,
        2.220446049250313e-16,
        0.0,
        0.0,
        0.0,
        0.0,
        1.0
      ],
      "name": "Sketchfab_model"
    },
    {
      "children": [
        2
      ],
      "name": "root"
    },
    {
      "children": [
        3
      ],
      "matrix": [
        1.0,
        0.0,
        0.0,
        0.0,
        0.0,
        2.220446049250313e-16,
        1.0,
        0.0,
        0.0,
        -1.0,
        2.220446049250313e-16,
        0.0,
        0.0,
        0.0,
        0.0,
        1.0
      ],
      "name": "GLTF_SceneRootNode"
    },
    {
      "children": [
        4
      ],
      "name": "gravity_arms_ARM_67"
    },
    {
      "children": [
        5,
        7,
        9,
        11,
        13,
        15,
        17,
        19,
        21,
        23,
        6,
        8,
        10,
        12,
        14,
        16,
        18,
        20,
        22
      ],
      "name": "GLTF_created_0"
    },
    {
      "children": [
        24
      ],
      "name": "GLTF_created_0_rootJoint"
    },
    {
      "name": "ArmL.smd_58"
    },
    {
      "mesh": 0,
      "name": "Object_7",
      "skin": 0
    },
    {
      "name": "ArmR.smd_59"
    },
    {
      "mesh": 1,
      "name": "Object_9",
      "skin": 0
    },
    {
      "name": "ForearmArmor.smd_60"
    },
    {
      "mesh": 2,
      "name": "Object_11",
      "skin": 0
    },
    {
      "name": "ForearmPipes.smd_61"
    },
    {
      "mesh": 3,
      "name": "Object_13",
      "skin": 0
    },
    {
      "name": "MainRing.smd_62"
    },
    {
      "mesh": 4,
      "name": "Object_15",
      "skin": 0
    },
    {
      "name": "MainRingPart.smd_63"
    },
    {
      "mesh": 5,
      "name": "Object_17",
      "skin": 0
    },
    {
      "name": "Ring.smd_64"
    },
    {
      "mesh": 6,
      "name": "Object_19",
      "skin": 0
    },
    {
      "name": "SpikesPart.smd_65"
    },
    {
      "mesh": 7,
      "name": "Object_21",
      "skin": 0
    },
    {
      "name": "UpperArmPipes.smd_66"
    },
    {
      "mesh": 8,
      "name": "Object_23",
      "skin": 0
    },
    {
      "children": [
        25,
        27,
        28
      ],
      "name": "Root_57",
      "translation": [
        0.0,
        0.7431058287620544,
        -0.17031295597553253
      ]
    },
    {
      "children": [
        26
      ],
      "name": "ValveBiped.Bip01_MainRing_1",
      "translation": [
        0.00758108077570796,
        0.3175862431526184,
        0.001622229814529419
      ]
    },
    {
      "name": "ValveBiped.Bip01_MainRing_Part_0",
      "translation": [
        0.15717828273773193,
        0.20394957065582275,
        0.003565862774848938
      ]
    },
    {
      "name": "ValveBiped.Bip01_Ring_2",
      "translation": [
        0.0036343971733003855,
        0.23684144020080566,
        0.08328983932733536
      ]
    },
    {
      "children": [
        29,
        56
      ],
      "name": "ValveBiped.Bip01_Spine4_56"
    },
    {
      "children": [
        30
      ],
      "name": "ValveBiped.Bip01_R_Clavicle_29",
      "translation": [
        -0.23805305361747742,
        0.2774255871772766,
        0.0016222596168518066
      ]
    },
    {
      "children": [
        31,
        32,
        33,
        34,
        55
      ],
      "name": "ValveBiped.Bip01_R_UpperArm_28",
      "rotation": [
        0.2431972324848175,
        -0.1152118667960167,
        0.014561217278242111,
        0.9630001783370972
      ],
      "translation": [
        -0.07493683695793152,
        -0.012183904647827148,
        -0.00021101534366607666
      ]
    },
    {
      "name": "ValveBiped.Bip01_R_Upper_PipeM_3",
      "rotation": [
        -6.51925713412993e-09,
        -2.668239176273346e-07,
        -3.869645297527313e-07,
        1.0
      ],
      "scale": [
        1.0,
        1.0,
        0.9999999403953552
      ],
      "translation": [
        -0.15372973680496216,
        0.08305996656417847,
        0.0
      ]
    },
    {
      "name": "ValveBiped.Bip01_R_Upper_PipeR_4",
      "rotation": [
        1.816079020500183e-07,
        -5.282927304506302e-07,
        -3.8603320717811584e-07,
        1.0
      ],
      "translation": [
        -0.1010139063000679,
        0.07678402215242386,
        -0.08534909039735794
      ]
    },
    {
      "name": "ValveBiped.Bip01_R_Upper_PipeL_5",
      "rotation": [
        -2.0023435354232788e-07,
        -2.707820385694504e-07,
        -1.9185245037078857e-07,
        1.0
      ],
      "translation": [
        -0.10101392865180969,
        0.07678410410881042,
        0.07882256805896759
      ]
    },
    {
      "children": [
        35,
        36,
        37,
        54
      ],
      "name": "ValveBiped.Bip01_R_Forearm_26",
      "rotation": [
        -0.17889012396335602,
        0.30038002133369446,
        0.5937947630882263,
        0.72469162940979
      ],
      "scale": [
        1.0000001192092896,
        1.000000238418579,
        1.0000001192092896
      ],
      "translation": [
        -0.1130855455994606,
        -0.336930513381958,
        0.12363149970769882
      ]
    },
    {
      "name": "ValveBiped.Bip01_R_Lower_PipeM_6",
      "rotation": [
        0.5768898129463196,
        -0.3760228455066681,
        -0.16973654925823212,
        0.7049784064292908
      ],
      "scale": [
        0.9999997615814209,
        0.9999998211860657,
        0.9999998211860657
      ],
      "translation": [
        0.06323149800300598,
        -0.01482139341533184,
        -0.13424959778785706
      ]
    },
    {
      "name": "ValveBiped.Bip01_R_Lower_PipeL_7",
      "rotation": [
        0.6224634647369385,
        -0.3590332269668579,
        -0.18190617859363556,
        0.6712261438369751
      ],
      "scale": [
        0.9999998211860657,
        1.0,
        0.9999998807907104
      ],
      "translation": [
        -0.042705655097961426,
        0.00012277159839868546,
        -0.14339998364448547
      ]
    },
    {
      "children": [
        38,
        41,
        44,
        47,
        50,
        53
      ],
      "name": "ValveBiped.Bip01_R_Hand_24",
      "rotation": [
        -0.15727828443050385,
        -0.04119372367858887,
        -0.7374417185783386,
        0.655550479888916
      ],
      "scale": [
        0.9999997615814209,
        0.9999997615814209,
        0.9999998807907104
      ],
      "translation": [
        -0.31562361121177673,
        0.009479179978370667,
        0.036960117518901825
      ]
    },
    {
      "children": [
        39
      ],
      "name": "ValveBiped.Bip01_R_Finger1_10",
      "rotation": [
        0.08550660312175751,
        0.09175143390893936,
        0.7476962804794312,
        0.6520894169807434
      ],
      "scale": [
        1.0,
        1.0,
        0.9999999403953552
      ],
      "translation": [
        0.0501200407743454,
        -0.3306600749492645,
        0.08957153558731079
      ]
    },
    {
      "children": [
        40
      ],
      "name": "ValveBiped.Bip01_R_Finger11_9",
      "rotation": [
        1.9464638967292558e-07,
        -6.729387678205967e-07,
        -4.6566123179658803e-10,
        1.0
      ],
      "scale": [
        1.0,
        1.0000001192092896,
        1.0000001192092896
      ],
      "translation": [
        -0.12226545810699463,
        -0.015374308452010155,
        0.01082014013081789
      ]
    },
    {
      "name": "ValveBiped.Bip01_R_Finger12_8",
      "rotation": [
        1.1827797408159313e-07,
        -9.255018085241318e-09,
        -5.331821739673615e-07,
        1.0
      ],
      "scale": [
        1.0,
        1.0,
        0.9999999403953552
      ],
      "translation": [
        -0.01675945147871971,
        -0.0871431902050972,
        0.007883290760219097
      ]
    },
    {
      "children": [
        42
      ],
      "name": "ValveBiped.Bip01_R_Finger2_13",
      "rotation": [
        0.08550645411014557,
        0.09175103902816772,
        0.7476955056190491,
        0.6520903706550598
      ],
      "scale": [
        0.9999999403953552,
        0.9999999403953552,
        0.9999999403953552
      ],
      "translation": [
        0.03677868843078613,
        -0.33456021547317505,
        0.03591730445623398
      ]
    },
    {
      "children": [
        43
      ],
      "name": "ValveBiped.Bip01_R_Finger21_12",
      "rotation": [
        1.9371509552001953e-07,
        -2.429005689918995e-07,
        5.867332220077515e-07,
        1.0
      ],
      "translation": [
        -0.12218834459781647,
        -0.02252308465540409,
        0.008501558564603329
      ]
    },
    {
      "name": "ValveBiped.Bip01_R_Finger22_11",
      "rotation": [
        -1.457519829273224e-07,
        8.149072527885437e-09,
        1.862645593320167e-09,
        1.0
      ],
      "scale": [
        0.9999999403953552,
        0.9999999403953552,
        1.0
      ],
      "translation": [
        -0.016702309250831604,
        -0.09247570484876633,
        0.00788333360105753
      ]
    },
    {
      "children": [
        45
      ],
      "name": "ValveBiped.Bip01_R_Finger3_16",
      "rotation": [
        0.08550617843866348,
        0.09175258874893188,
        0.7476933598518372,
        0.6520926356315613
      ],
      "scale": [
        0.9999999403953552,
        1.0,
        1.0
      ],
      "translation": [
        0.022684097290039063,
        -0.3371407091617584,
        -0.0198777187615633
      ]
    },
    {
      "children": [
        46
      ],
      "name": "ValveBiped.Bip01_R_Finger31_15",
      "rotation": [
        -2.915039942763542e-07,
        -1.2448872439563274e-06,
        3.3220278510270873e-06,
        1.0
      ],
      "scale": [
        1.0,
        0.9999999403953552,
        0.9999999403953552
      ],
      "translation": [
        -0.12199477106332779,
        -0.04049253836274147,
        0.01043387595564127
      ]
    },
    {
      "name": "ValveBiped.Bip01_R_Finger32_14",
      "rotation": [
        -1.0058283805847168e-07,
        -1.1513476039226589e-07,
        2.0116569032779807e-07,
        1.0
      ],
      "scale": [
        0.9999999403953552,
        1.0,
        1.0
      ],
      "translation": [
        -0.01669720932841301,
        -0.09293954074382782,
        0.007883322425186634
      ]
    },
    {
      "children": [
        48
      ],
      "name": "ValveBiped.Bip01_R_Finger4_19",
      "rotation": [
        0.08550643175840378,
        0.09175141900777817,
        0.7476958632469177,
        0.6520898938179016
      ],
      "scale": [
        0.9999999403953552,
        1.0,
        0.9999999403953552
      ],
      "translation": [
        0.009209292009472847,
        -0.3396570086479187,
        -0.07324736565351486
      ]
    },
    {
      "children": [
        49
      ],
      "name": "ValveBiped.Bip01_R_Finger41_18",
      "rotation": [
        -9.918585419654846e-08,
        -4.237517714500427e-08,
        -1.862645149230957e-07,
        1.0
      ],
      "translation": [
        -0.12185411900281906,
        -0.05362970009446144,
        0.009660972282290459
      ]
    },
    {
      "name": "ValveBiped.Bip01_R_Finger42_17",
      "rotation": [
        -7.35744833946228e-08,
        -5.203764530392618e-08,
        1.9371508130916482e-07,
        1.0
      ],
      "scale": [
        1.0000001192092896,
        1.0,
        1.0
      ],
      "translation": [
        -0.016642305999994278,
        -0.09804025292396545,
        0.007883361540734768
      ]
    },
    {
      "children": [
        51
      ],
      "name": "ValveBiped.Bip01_R_Finger0_22",
      "rotation": [
        0.10655722767114639,
        0.06614616513252258,
        0.8924172520637512,
        0.43343019485473633
      ],
      "scale": [
        0.9999998807907104,
        0.9999998807907104,
        1.0
      ],
      "translation": [
        0.08923408389091492,
        -0.142369344830513,
        0.12452135235071182
      ]
    },
    {
      "children": [
        52
      ],
      "name": "ValveBiped.Bip01_R_Finger01_21",
      "rotation": [
        1.853331781376255e-07,
        2.0873267203569412e-07,
        -1.1175870895385742e-08,
        1.0
      ],
      "scale": [
        1.0,
        1.0000001192092896,
        1.0
      ],
      "translation": [
        -0.025499727576971054,
        -0.002942838240414858,
        0.005796574987471104
      ]
    },
    {
      "name": "ValveBiped.Bip01_R_Finger02_20",
      "rotation": [
        4.237518069771795e-08,
        5.351612344384193e-07,
        6.0638417380687315e-06,
        1.0
      ],
      "scale": [
        1.0,
        0.9999998807907104,
        0.9999999403953552
      ],
      "translation": [
        -0.09100774675607681,
        0.0008069286122918129,
        0.01835586503148079
      ]
    },
    {
      "name": "ValveBiped.Bip01_R_Hand_Spikes_23",
      "rotation": [
        0.08550593256950378,
        0.09175154566764832,
        0.7476945519447327,
        0.6520915031433105
      ],
      "scale": [
        1.0000001192092896,
        1.0,
        0.9999998807907104
      ],
      "translation": [
        0.006975965574383736,
        -0.27282002568244934,
        -0.017569366842508316
      ]
    },
    {
      "name": "ValveBiped.Bip01_R_ForearmPart_25",
      "rotation": [
        -0.11694831401109695,
        -0.033590614795684814,
        -0.7012313604354858,
        0.7024737596511841
      ],
      "scale": [
        0.9999998211860657,
        0.9999998807907104,
        0.9999998807907104
      ],
      "translation": [
        -0.23047062754631042,
        0.08589904755353928,
        0.030218912288546562
      ]
    },
    {
      "name": "ValveBiped.Bip01_R_Lower_PipeR_27",
      "rotation": [
        0.2681095004081726,
        0.2367880940437317,
        0.043781910091638565,
        0.9328085780143738
      ],
      "translation": [
        -0.10293667763471603,
        -0.29740506410598755,
        -0.04992047697305679
      ]
    },
    {
      "children": [
        57
      ],
      "name": "ValveBiped.Bip01_L_Clavicle_55",
      "translation": [
        0.25622501969337463,
        0.26652008295059204,
        0.001622229814529419
      ]
    },
    {
      "children": [
        58,
        59,
        60,
        61,
        81
      ],
      "name": "ValveBiped.Bip01_L_UpperArm_54",
      "rotation": [
        0.22461844980716705,
        0.04414211958646774,
        -0.0315890833735466,
        0.9729337692260742
      ],
      "scale": [
        1.0000001192092896,
        1.0,
        1.0
      ],
      "translation": [
        0.07649639248847961,
        0.0012649297714233398,
        -0.0076635777950286865
      ]
    },
    {
      "name": "ValveBiped.Bip01_L_Upper_PipeM_30",
      "rotation": [
        4.7497451305389404e-08,
        5.201436579227448e-07,
        3.9301812648773193e-07,
        1.0
      ],
      "translation": [
        0.1460433155298233,
        0.08652982860803604,
        0.007874652743339539
      ]
    },
    {
      "name": "ValveBiped.Bip01_L_Upper_PipeR_31",
      "rotation": [
        -4.0046870708465576e-07,
        5.601905286312103e-07,
        -1.3671815395355225e-06,
        1.0
      ],
      "translation": [
        0.09378548711538315,
        0.07331377267837524,
        -0.07747452706098557
      ]
    },
    {
      "name": "ValveBiped.Bip01_L_Upper_PipeL_32",
      "rotation": [
        4.2994506657123566e-06,
        -4.9639493227005e-07,
        -1.94646418094635e-07,
        1.0
      ],
      "translation": [
        0.09378568083047867,
        0.07331360876560211,
        0.08669716119766235
      ]
    },
    {
      "children": [
        62,
        63,
        64,
        65
      ],
      "name": "ValveBiped.Bip01_L_Forearm_52",
      "rotation": [
        -0.28340160846710205,
        -0.24865227937698364,
        -0.5167145133018494,
        0.7686754465103149
      ],
      "scale": [
        0.9999998807907104,
        1.0,
        0.9999999403953552
      ],
      "translation": [
        0.15373224020004272,
        -0.3331766724586487,
        0.12915852665901184
      ]
    },
    {
      "name": "ValveBiped.Bip01_L_ForearmPart_33",
      "rotation": [
        0.002080003498122096,
        0.045978665351867676,
        0.6819580793380737,
        0.7299416661262512
      ],
      "scale": [
        1.0000001192092896,
        1.0,
        0.9999999403953552
      ],
      "translation": [
        0.22301599383354187,
        0.07680021971464157,
        -0.0008587483316659927
      ]
    },
    {
      "name": "ValveBiped.Bip01_L_Lower_PipeM_34",
      "rotation": [
        0.4405438005924225,
        0.6776428818702698,
        0.4652552306652069,
        0.3609139919281006
      ],
      "scale": [
        1.0000001192092896,
        1.0000003576278687,
        1.0
      ],
      "translation": [
        -0.06625858694314957,
        0.0004263855516910553,
        -0.13026869297027588
      ]
    },
    {
      "name": "ValveBiped.Bip01_L_Lower_PipeL_35",
      "rotation": [
        0.4405468702316284,
        0.6776419878005981,
        0.4652513265609741,
        0.36091697216033936
      ],
      "scale": [
        1.0,
        1.000000238418579,
        1.0000001192092896
      ],
      "translation": [
        0.033328644931316376,
        0.008881129324436188,
        -0.14393366873264313
      ]
    },
    {
      "children": [
        66,
        69,
        72,
        75,
        78
      ],
      "name": "ValveBiped.Bip01_L_Hand_51",
      "rotation": [
        -0.2115963250398636,
        0.12072660773992538,
        0.8346037268638611,
        0.49405336380004883
      ],
      "scale": [
        1.0000001192092896,
        1.0,
        1.0
      ],
      "translation": [
        0.3150583803653717,
        -0.005857847630977631,
        -0.00642224308103323
      ]
    },
    {
      "children": [
        67
      ],
      "name": "ValveBiped.Bip01_L_Finger1_38",
      "rotation": [
        0.16969363391399384,
        -0.12651686370372772,
        -0.8508206605911255,
        0.4809384346008301
      ],
      "scale": [
        1.0,
        1.0000001192092896,
        1.0000001192092896
      ],
      "translation": [
        -0.16310501098632813,
        -0.3030202388763428,
        0.034014586359262466
      ]
    },
    {
      "children": [
        68
      ],
      "name": "ValveBiped.Bip01_L_Finger11_37",
      "rotation": [
        1.9790604710578918e-07,
        3.67173896620443e-07,
        1.1762604117393494e-06,
        1.0
      ],
      "scale": [
        1.0000001192092896,
        1.0,
        1.0
      ],
      "translation": [
        0.1264270544052124,
        -0.030267920345067978,
        0.008563688024878502
      ]
    },
    {
      "name": "ValveBiped.Bip01_L_Finger12_36",
      "rotation": [
        9.825451741107827e-08,
        -6.08968548476696e-07,
        -5.4948028349599554e-08,
        1.0
      ],
      "scale": [
        1.0,
        1.0000001192092896,
        1.0000001192092896
      ],
      "translation": [
        0.030350573360919952,
        -0.0782032310962677,
        0.0067797936499118805
      ]
    },
    {
      "children": [
        70
      ],
      "name": "ValveBiped.Bip01_L_Finger2_41",
      "rotation": [
        0.1696939766407013,
        -0.12651745975017548,
        -0.8508201241493225,
        0.4809392988681793
      ],
      "scale": [
        1.0,
        1.0,
        1.000000238418579
      ],
      "translation": [
        -0.1409284919500351,
        -0.30620428919792175,
        -0.01565793715417385
      ]
    },
    {
      "children": [
        71
      ],
      "name": "ValveBiped.Bip01_L_Finger21_40",
      "rotation": [
        -2.919696271419525e-07,
        -7.695052772760391e-08,
        -2.7939677238464355e-09,
        1.0
      ],
      "scale": [
        1.0,
        1.0,
        0.9999999403953552
      ],
      "translation": [
        0.12086336314678192,
        -0.045724403113126755,
        0.005642787553369999
      ]
    },
    {
      "name": "ValveBiped.Bip01_L_Finger22_39",
      "rotation": [
        9.685756197086448e-08,
        -2.0011796664221038e-07,
        -3.725290742551124e-09,
        1.0
      ],
      "scale": [
        0.9999998807907104,
        0.9999998807907104,
        0.9999998807907104
      ],
      "translation": [
        0.01932954415678978,
        -0.08833902329206467,
        0.007057987153530121
      ]
    },
    {
      "children": [
        73
      ],
      "name": "ValveBiped.Bip01_L_Finger3_44",
      "rotation": [
        0.16969364881515503,
        -0.12651686370372772,
        -0.8508195281028748,
        0.48094046115875244
      ],
      "scale": [
        1.0,
        1.0,
        1.0000001192092896
      ],
      "translation": [
        -0.11783859878778458,
        -0.3106178641319275,
        -0.06880917400121689
      ]
    },
    {
      "children": [
        74
      ],
      "name": "ValveBiped.Bip01_L_Finger31_43",
      "rotation": [
        6.877817781969497e-07,
        3.555323928594589e-07,
        -9.723007678985596e-07,
        1.0
      ],
      "scale": [
        1.0,
        0.9999999403953552,
        0.9999999403953552
      ],
      "translation": [
        0.11300171911716461,
        -0.0650085061788559,
        0.008702913299202919
      ]
    },
    {
      "name": "ValveBiped.Bip01_L_Finger32_42",
      "rotation": [
        -1.4295801520347595e-07,
        -2.0314473658800125e-07,
        -1.8905848264694214e-07,
        1.0
      ],
      "translation": [
        0.020966041833162308,
        -0.085260309278965,
        0.007892768830060959
      ]
    },
    {
      "children": [
        76
      ],
      "name": "ValveBiped.Bip01_L_Finger4_47",
      "rotation": [
        0.1696934998035431,
        -0.12651649117469788,
        -0.85081946849823,
        0.48094066977500916
      ],
      "scale": [
        1.0,
        1.0000001192092896,
        1.0000001192092896
      ],
      "translation": [
        -0.09514430165290833,
        -0.3134963810443878,
        -0.11914586275815964
      ]
    },
    {
      "children": [
        77
      ],
      "name": "ValveBiped.Bip01_L_Finger41_46",
      "rotation": [
        2.8871002655250777e-07,
        3.6472926012720563e-07,
        -7.851050440876861e-07,
        1.0
      ],
      "scale": [
        0.9999998807907104,
        0.9999998807907104,
        0.9999998807907104
      ],
      "translation": [
        0.09882457554340363,
        -0.09215154498815536,
        0.008424747735261917
      ]
    },
    {
      "name": "ValveBiped.Bip01_L_Finger42_45",
      "rotation": [
        5.587935003603661e-09,
        -1.1594965343419972e-07,
        4.842877388000488e-08,
        1.0
      ],
      "scale": [
        1.0,
        1.0,
        1.0000001192092896
      ],
      "translation": [
        0.002630474977195263,
        -0.0879620611667633,
        0.008171023800969124
      ]
    },
    {
      "children": [
        79
      ],
      "name": "ValveBiped.Bip01_L_Finger0_50",
      "rotation": [
        0.19996318221092224,
        -0.06940174102783203,
        -0.9562976360321045,
        0.20172514021396637
      ],
      "scale": [
        1.000000238418579,
        1.0000001192092896,
        1.0000001192092896
      ],
      "translation": [
        -0.14629250764846802,
        -0.10754545032978058,
        0.08573342859745026
      ]
    },
    {
      "children": [
        80
      ],
      "name": "ValveBiped.Bip01_L_Finger01_49",
      "rotation": [
        -2.561137080192566e-08,
        -6.236368790268898e-07,
        1.3969837731053758e-08,
        1.0
      ],
      "scale": [
        1.0000001192092896,
        1.0,
        1.0
      ],
      "translation": [
        0.023633792996406555,
        -0.003451927099376917,
        0.004451683722436428
      ]
    },
    {
      "name": "ValveBiped.Bip01_L_Finger02_48",
      "rotation": [
        -1.0011717677116394e-07,
        1.4345860108733177e-06,
        1.862645149230957e-09,
        1.0
      ],
      "translation": [
        0.0957118570804596,
        -0.0004581538960337639,
        0.0025038374587893486
      ]
    },
    {
      "name": "ValveBiped.Bip01_L_Lower_PipeR_53",
      "rotation": [
        0.20227481424808502,
        0.33311015367507935,
        0.11500444263219833,
        0.9137267470359802
      ],
      "scale": [
        0.9999999403953552,
        0.9999999403953552,
        1.0
      ],
      "translation": [
        0.10712699592113495,
        -0.300598680973053,
        -0.038173362612724304
      ]
    }
  ],
  "samplers": [
    {
      "magFilter": 9729,
      "minFilter": 9987,
      "wrapS": 10497,
      "wrapT": 10497
    }
  ],
  "scene": 0,
  "scenes": [
    {
      "name": "Sketchfab_Scene",
      "nodes": [
        0
      ]
    }
  ],
  "skins": [
    {
      "inverseBindMatrices": 45,
      "joints": [
        5,
        24,
        25,
        26,
        27,
        28,
        29,
        30,
        31,
        32,
        33,
        34,
        35,
        36,
        37,
        38,
        39,
        40,
        41,
        42,
        43,
        44,
        45,
        46,
        47,
        48,
        49,
        50,
        51,
        52,
        53,
        54,
        55,
        56,
        57,
        58,
        59,
        60,
        61,
        62,
        63,
        64,
        65,
        66,
        67,
        68,
        69,
        70,
        71,
        72,
        73,
        74,
        75,
        76,
        77,
        78,
        79,
        80,
        81
      ],
      "skeleton": 5
    }
  ],
  "textures": [
    {
      "sampler": 0,
      "source": 0
    },
    {
      "sampler": 0,
      "source": 1
    },
    {
      "sampler": 0,
      "source": 2
    }
  ]
}
